<?xml version="1.0" encoding="UTF-8" standalone="no"?>
<!DOCTYPE svg PUBLIC "-//W3C//DTD SVG 1.1//EN" "http://www.w3.org/Graphics/SVG/1.1/DTD/svg11.dtd">
<svg width="100%" height="100%" viewBox="0 0 1900 1600" version="1.1" xmlns="http://www.w3.org/2000/svg" xmlns:xlink="http://www.w3.org/1999/xlink" xml:space="preserve" style="fill-rule:evenodd;clip-rule:evenodd;stroke-linecap:round;stroke-linejoin:round;stroke-miterlimit:1.41421;">
  <path d="M144.991,1445.29c-3.478,-0.144 -6.959,-0.217 -10.434,-0.434c-0.576,-0.036 -1.637,-11.672 -1.736,-12.612c-3.369,-32.072 0.315,-68.094 8.915,-99.124c11.85,-42.755 18.999,-88.967 33.472,-130.659c27.59,-79.473 60.909,-156.946 89.132,-236.085c35.323,-99.046 75.015,-194.934 120.651,-289.566c30.126,-62.471 47.235,-128.246 92.613,-182.822c45.923,-55.23 106.307,-125.588 164.349,-167.829c43.961,-31.994 102.007,-58.202 140.434,-96.52c41.702,-41.583 85.784,-117.78 136.085,-145.217c32.277,-17.605 68.766,-21.987 104.132,-29.566c26.141,-5.601 49.172,-16.286 74.783,-3.48c39.598,19.799 -44.666,101.83 -56.302,111.961c-36.08,31.413 -62.511,71.657 -95,106.736c-25.279,27.295 -57.977,48.528 -85,74.132c-45.904,43.494 -85.586,91.779 -126.962,139.349c-33.127,38.087 -67.532,83.09 -90.868,128.039c-12.634,24.335 -16.747,53.392 -31.736,76.527c-39.135,60.405 -83.39,122.087 -115.66,186.519c-38.218,76.311 -63.574,158.562 -97.821,236.52c-21.395,48.703 -48.413,94.739 -73.915,141.302c-25.349,46.284 -68.677,131.292 -108.481,165.442c-14.007,12.018 -32.175,24.708 -49.34,31.519c-6.606,2.622 -32.862,-2.515 -34.566,3.481" style="fill:#c63f3f;stroke-width:1px;stroke:#000;"/>
  <clipPath id="_clip1"><rect x="190" y="81" width="966" height="1420"/></clipPath>
  <g clip-path="url(#_clip1)">
    <clipPath id="_clip2"><rect x="190" y="81" width="966" height="1420"/></clipPath>
    <g clip-path="url(#_clip2)"><use xlink:href="#_Image3" x="190" y="81" width="966px" height="1420px"/></g>
  </g>
  <path d="M1117.53,182.344c5.815,-0.323 -23.437,26.538 -27.83,32.396c-18.319,24.425 -37.014,44.653 -56.085,68.046c-12.501,15.335 -21.632,33.409 -35.868,47.605c-19.663,19.607 -44.528,35.843 -65.217,55c-32.402,30.001 -60.291,64.711 -92.83,95.217c-30.503,28.596 -43.029,68.28 -60.217,104.566c-10.262,21.664 -29.935,42.962 -43.698,62.612c-25.725,36.73 -56.729,69.977 -81.085,107.388c-24.878,38.213 -39.97,84.597 -63.264,124.132c-14.121,23.967 -34.618,41.291 -46.953,67.387c-13.704,28.991 -15.942,61.491 -25,91.745c-9.542,31.87 -22.332,66.351 -35.217,96.953c-11.371,27.007 -28.719,45.024 -46.519,68.046c-11.791,15.252 -17.906,35.388 -26.528,52.605c-24.754,49.431 -48.725,99.962 -75,148.481c-7.8,14.403 -26.31,19.445 -33.689,35.434c-9.576,20.747 -5.321,63.197 14.783,75.868c16.249,10.241 38.207,-2.752 55.434,2.395c14.045,4.197 19.467,17.775 36.085,16.737c14.055,-0.879 68.659,-109.277 73.264,-124.349c5.849,-19.142 2.68,-40.674 11.302,-58.915c16.277,-34.435 48.152,-62.338 66.519,-96.302c13.248,-24.499 22.456,-51.426 34.566,-76.519c13.736,-28.461 35.884,-52.438 48.481,-81.528c16.63,-38.402 20.977,-79.75 42.17,-115.868c21.981,-37.46 49.41,-69.829 74.132,-105.217c27.028,-38.688 45.433,-82.728 74.349,-120.217c31.011,-40.205 66.963,-74.492 95.217,-116.953c59.8,-89.872 99.047,-195.127 167.387,-279.349c18.628,-22.957 45.791,-39.515 67.613,-59.132c8.012,-7.203 85.251,-84.368 71.736,-102.388c-34.637,-46.182 -74.355,-19.345 -105.651,-3.697c-5.525,2.762 -23.331,-8.912 -19.566,-3.264" style="fill:#c6bc3f;stroke-width:1px;stroke:#000;"/>
  <path d="M1225.6,207.925c-18.56,5.724 -29.447,21.46 -43.255,34.349c-13.391,12.499 -34.801,23.503 -45.217,38.481c-25.293,36.373 -42.449,83.785 -71.745,116.519c-32.048,35.81 -57.017,72.943 -86.302,110.651c-23.155,29.815 -52.849,56.603 -73.264,88.264c-14.962,23.205 -19.235,48.994 -30,73.698c-12.905,29.615 -31.015,58.4 -48.906,85.217c-51.687,77.473 -131.998,131.424 -177.396,214.132c-43.054,78.436 -26.351,147.032 -71.085,227.17c-47.365,84.851 -147.179,171.324 -147.179,275.434c0,21.154 -2.023,78.501 18.481,90.217c48.558,27.748 82.334,-15.929 103.915,-54.783c45.788,-82.437 77.047,-170.863 126.519,-251.302c27.041,-43.967 57.097,-92.211 75.217,-140.651c7.246,-19.371 7.421,-40.695 14.349,-59.783c7.136,-19.658 20.822,-37.16 28.698,-56.519c19.96,-49.066 36.984,-101.358 60,-149.566c19.965,-41.817 56.462,-72.283 77.17,-113.698c10.289,-20.578 14.013,-43.989 23.915,-64.783c12.01,-25.221 31.944,-45.909 46.085,-69.783c16.025,-27.055 26.143,-59.319 43.264,-85c14.432,-21.648 44.74,-36.923 63.915,-54.566c49.169,-45.242 211.27,-174.675 193.472,-245.868c-11.027,-44.106 -88.046,-23.858 -94.557,11.953" style="fill:#3fc642;stroke-width:1px;stroke:#000;"/>
  <path d="M1332,254.922c-10.277,-1.062 -22.704,-5.927 -32.822,-0.868c-21.351,10.675 -59.548,89.565 -93.698,108.689c-11.191,6.267 -24.48,7.698 -35.868,14.132c-47.685,26.942 -91.751,73.438 -123.264,117.179c-15.014,20.84 -23.454,45.742 -39.783,66.085c-19.838,24.716 -50.565,43.793 -65,72.604c-23.142,46.193 -34.187,96.533 -59.123,142.179c-11.751,21.511 -27.724,40.627 -38.698,62.604c-11.664,23.36 -19.551,50.916 -32.83,73.047c-14.855,24.759 -35.051,46.062 -47.17,73.047c-16.963,37.771 -21.912,79.164 -35.868,117.821c-12.053,33.387 -31.097,59.215 -50,88.264c-20.353,31.279 -32.045,70.407 -46.528,104.566c-5.995,14.141 -15.946,26.324 -22.604,40.217c-19.037,39.724 -33.495,82.113 -52.396,122.17c-6.092,12.912 -22.654,77.958 -10.868,85.868c6.54,4.389 59.876,-34.786 70.868,-44.783c65.191,-59.285 112.168,-159.068 153.698,-235.868c41.719,-77.147 80.762,-155.075 117.83,-234.783c14.348,-30.851 23.183,-64.209 39.349,-94.349c20.324,-37.89 56.563,-68.175 75.434,-105.868c18.101,-36.153 28.261,-75.567 45.868,-111.953c18.521,-38.273 84.83,-124.109 113.698,-156.736c26.333,-29.761 55.056,-60.318 86.302,-85c39.112,-30.895 87.075,-57.498 110.217,-103.915c17.207,-34.512 12.503,-113.047 -35.434,-113.047c-5.811,0 -9.702,-1.673 -12.396,3.698" style="fill:#3fbbc6;stroke-width:1px;stroke:#000;"/>
  <path d="M1373.78,356.337c4.546,9.922 -49.615,33.912 -55.868,41.302c-57.584,68.054 -130.089,123.85 -197.604,182.387c-21.049,18.25 -33.675,39.42 -50.877,60.66c-38.016,46.94 -77.161,93.099 -105.651,146.736c-14.649,27.578 -24.964,57.822 -39.566,85.651c-14.963,28.516 -33.72,55.051 -47.604,84.132c-16.644,34.86 -23.697,72.904 -41.085,107.604c-42.888,85.585 -108.516,164.091 -136.311,256.311c-29.54,98.01 -82.783,86.856 -64.34,206.736c2.227,14.479 -1.277,30.023 11.736,39.783c28.263,21.197 58.413,-5.809 77.17,-24.566c0.218,-0.218 11.999,13.116 13.481,14.783c2.426,2.73 8.533,18.181 9.132,18.481c7.903,3.951 37.6,-30.136 40,-34.783c36.684,-71.021 54.297,-153.371 87.387,-226.528c21.751,-48.088 58.811,-90.208 77.83,-138.689c13.79,-35.152 7.099,-75.793 23.698,-110.434c15.308,-31.947 40.364,-55.222 60.434,-83.915c55.017,-78.656 123.239,-149.442 173.255,-231.519c9.636,-15.813 13.874,-34.541 22.613,-50.877c21.285,-39.789 28.846,-97.647 58.481,-131.736c41.008,-47.173 103.405,-82.036 132.387,-140c13.504,-27.008 -16.108,-83.682 -48.698,-67.387c-4.372,2.186 -5.87,17.69 -7.387,21.302" style="fill:#3f95c6;stroke-width:1px;stroke:#000;"/>
  <path d="M1451.29,440.729c-11.08,-2.803 -19.649,-6.327 -30.434,-3.472c-54.875,14.526 -156.769,122.292 -184.566,170.868c-15.903,27.791 -42.079,47.893 -55.877,76.953c-19.365,40.786 -24.877,84.105 -52.387,121.519c-41.251,56.102 -99.081,93.425 -136.302,153.481c-34.99,56.457 -44.553,123.811 -68.264,184.783c-15.717,40.416 -38.526,78.447 -55.651,118.481c-17.3,40.443 -20.362,84.055 -34.132,125.434c-11.256,33.825 -25.899,65.49 -31.519,101.085c-4.481,28.378 -22.046,63.642 7.387,81.302c36.397,21.838 35.372,-10.762 61.311,-20c100.765,-35.885 105.18,-121.378 128.038,-213.038c5.296,-21.237 16.313,-40.811 22.613,-61.745c9.001,-29.912 9.235,-60.187 22.387,-89.566c17.235,-38.501 45.265,-69.81 68.047,-104.557c30.378,-46.334 60.755,-91.132 93.472,-135.877c29.348,-40.138 45.472,-89.45 71.094,-132.17c18.653,-31.1 46.624,-55.46 65.868,-86.302c33.311,-53.386 68.605,-106.011 102.821,-158.698c13.606,-20.952 32.683,-40.221 39.566,-65c7.379,-26.564 -38.377,-95.509 -59.783,-50.651" style="fill:#7b3fc6;stroke-width:1px;stroke:#000;"/>
</svg>
